<svg id="Layer_2" data-name="Layer 2" xmlns="http://www.w3.org/2000/svg" viewBox="0 0 126.46 21.54"><path d="M59.49,12.36h2V28.11h-2Z" transform="translate(-59.49 -11.5)"/><path d="M65.8,12.36h3.94c4.84,0,7.44,2.82,7.44,7.82s-2.6,7.93-7.35,7.93h-4Zm3.79,14.11c3.68,0,5.52-2.31,5.52-6.29S73.27,14,69.59,14H67.8V26.47Z" transform="translate(-59.49 -11.5)"/><path d="M80.56,12.36h9.08v1.7H82.56V19h6v1.7h-6v5.73h7.32v1.69H80.56Z" transform="translate(-59.49 -11.5)"/><path d="M96.45,12.36h2.26L104,28.11h-2.13l-2.74-8.79c-.57-1.77-1.07-3.49-1.58-5.31h-.1c-.48,1.82-1,3.54-1.55,5.31l-2.78,8.79h-2Zm-2.53,9.36h7.25v1.6H93.92Z" transform="translate(-59.49 -11.5)"/><path d="M106.17,12.36h2V26.42h6.88v1.69h-8.88Z" transform="translate(-59.49 -11.5)"/><path d="M121.49,26.06l1.2-1.37A6.17,6.17,0,0,0,127,26.64c2.07,0,3.3-1,3.3-2.56s-1.14-2.12-2.63-2.77l-2.26-1c-1.47-.63-3.19-1.74-3.19-4.06s2.09-4.18,5-4.18A6.5,6.5,0,0,1,131.84,14l-1.06,1.29a5,5,0,0,0-3.57-1.47c-1.77,0-2.94.89-2.94,2.3s1.37,2.08,2.61,2.6l2.24,1c1.82.79,3.25,1.87,3.25,4.22S130.31,28.4,127,28.4A7.55,7.55,0,0,1,121.49,26.06Z" transform="translate(-59.49 -11.5)"/><path d="M135.26,16.45h1.63l.17,1.68h.07a5.58,5.58,0,0,1,3.91-2c2.46,0,3.56,1.59,3.56,4.56v7.39h-2V21c0-2.18-.66-3.11-2.2-3.11-1.2,0-2,.61-3.19,1.8v8.44h-2Z" transform="translate(-59.49 -11.5)"/><path d="M148,12.77a1.37,1.37,0,0,1,2.73,0,1.37,1.37,0,0,1-2.73,0Zm.36,3.68h2V28.11h-2Z" transform="translate(-59.49 -11.5)"/><path d="M154.29,16.45h1.63l.17,1.34h.07a6.14,6.14,0,0,1,3.72-1.63c3,0,4.62,2.34,4.62,5.94,0,4-2.38,6.3-5.05,6.3a5.32,5.32,0,0,1-3.24-1.35l.06,2V33h-2Zm8.17,5.67c0-2.57-.88-4.3-3.07-4.3a4.78,4.78,0,0,0-3.12,1.59v6.12a4.52,4.52,0,0,0,2.84,1.21C161,26.74,162.46,25,162.46,22.12Z" transform="translate(-59.49 -11.5)"/><path d="M166.75,22.3c0-3.8,2.56-6.14,5.24-6.14,3,0,4.66,2.14,4.66,5.47a6.85,6.85,0,0,1-.09,1.12H168.7c.14,2.48,1.65,4.08,3.88,4.08a5.11,5.11,0,0,0,2.9-.93l.71,1.29a6.89,6.89,0,0,1-3.86,1.21C169.22,28.4,166.75,26.13,166.75,22.3Zm8.15-1c0-2.34-1.05-3.61-2.87-3.61-1.64,0-3.11,1.32-3.35,3.61Z" transform="translate(-59.49 -11.5)"/><path d="M179.52,16.45h1.63l.17,2.12h.06a4,4,0,0,1,3.32-2.41,2.62,2.62,0,0,1,1.24.24l-.36,1.73a3.25,3.25,0,0,0-1.14-.19c-1,0-2.16.71-2.95,2.68v7.49h-2Z" transform="translate(-59.49 -11.5)"/></svg>